<svg xmlns="http://www.w3.org/2000/svg" viewBox="0 0 541.96 565"><defs><style>.cls-1{fill:#27b6f0;}</style></defs><g id="Слой_2" data-name="Слой 2"><g id="Слой_2-2" data-name="Слой 2"><rect class="cls-1" x="80" y="296" width="47" height="212" rx="23"/><rect class="cls-1" x="80" y="60" width="47" height="89" rx="23"/><rect class="cls-1" x="80" y="185" width="47" height="91" rx="23"/><rect class="cls-1" x="163" y="17" width="47" height="146" rx="23"/><rect class="cls-1" x="248" width="47" height="146" rx="23"/><rect class="cls-1" y="185" width="47" height="217" rx="23"/><rect class="cls-1" x="329" y="17" width="47" height="146" rx="23"/><rect class="cls-1" x="416" y="73" width="47" height="207" rx="23"/><rect class="cls-1" x="494.96" y="190.46" width="47" height="211.54" rx="23"/><rect class="cls-1" x="416.18" y="419" width="47" height="88.86" rx="23"/><rect class="cls-1" x="416.18" y="293.66" width="47" height="88.86" rx="23"/><rect class="cls-1" x="248.18" y="418.66" width="47" height="146.34" rx="23"/><rect class="cls-1" x="329.18" y="401.91" width="47" height="146.34" rx="23"/><rect class="cls-1" x="163.18" y="403.91" width="47" height="146.34" rx="23"/></g></g></svg>