<svg xmlns="http://www.w3.org/2000/svg" xmlns:xlink="http://www.w3.org/1999/xlink" viewBox="0 0 739 739"><defs><style>.cls-1{fill:url(#Безымянный_градиент_35);}.cls-2{fill:#fff;}</style><linearGradient id="Безымянный_градиент_35" x1="347.09" y1="-37.32" x2="390.43" y2="749.5" gradientUnits="userSpaceOnUse"><stop offset="0.01" stop-color="#27b6f0"/><stop offset="1" stop-color="#0e63cf"/></linearGradient></defs><g id="Слой_2" data-name="Слой 2"><g id="Слой_3" data-name="Слой 3"><rect class="cls-1" width="739" height="739" rx="133.49"/></g><g id="Слой_2-2" data-name="Слой 2"><rect class="cls-2" x="221.15" y="379.99" width="36.51" height="164.68" rx="18.25"/><rect class="cls-2" x="221.15" y="196.67" width="36.51" height="69.13" rx="18.25"/><rect class="cls-2" x="221.15" y="293.76" width="36.51" height="70.69" rx="18.25"/><rect class="cls-2" x="285.62" y="163.27" width="36.51" height="113.41" rx="18.25"/><rect class="cls-2" x="351.65" y="150.06" width="36.51" height="113.41" rx="18.25"/><rect class="cls-2" x="159.01" y="293.76" width="36.51" height="168.56" rx="18.25"/><rect class="cls-2" x="414.57" y="163.27" width="36.51" height="113.41" rx="18.25"/><rect class="cls-2" x="482.15" y="206.77" width="36.51" height="160.79" rx="18.25"/><rect class="cls-2" x="543.48" y="298" width="36.51" height="164.32" rx="18.25"/><rect class="cls-2" x="482.29" y="475.53" width="36.51" height="69.02" rx="18.25"/><rect class="cls-2" x="482.29" y="378.17" width="36.51" height="69.02" rx="18.25"/><rect class="cls-2" x="351.79" y="475.26" width="36.51" height="113.68" rx="18.25"/><rect class="cls-2" x="414.71" y="462.26" width="36.51" height="113.68" rx="18.25"/><rect class="cls-2" x="285.77" y="463.81" width="36.51" height="113.68" rx="18.25"/></g></g></svg>